<?xml version="1.0" standalone="no"?>
<!DOCTYPE svg PUBLIC "-//W3C//DTD SVG 20010904//EN"
 "http://www.w3.org/TR/2001/REC-SVG-20010904/DTD/svg10.dtd">
<svg version="1.0" xmlns="http://www.w3.org/2000/svg"
 width="1052.000000pt" height="1052.000000pt" viewBox="0 0 1052.000000 1052.000000"
 preserveAspectRatio="xMidYMid meet">
<metadata>
Created by potrace 1.11, written by Peter Selinger 2001-2013
</metadata>
<g transform="translate(0.000000,1052.000000) scale(0.100000,-0.100000)"
fill="#000000" stroke="none">
<path d="M6351 8902 c-40 -6 -70 -32 -90 -77 -19 -42 -50 -154 -56 -204 -2
-14 -4 -26 -5 -26 -2 0 -9 -36 -13 -65 -2 -14 -7 -31 -11 -38 -4 -7 -5 -16 -2
-21 3 -4 1 -23 -5 -42 -5 -19 -12 -52 -14 -74 -3 -22 -12 -76 -20 -120 -17
-97 -23 -128 -30 -180 -4 -22 -8 -47 -10 -55 -2 -8 -7 -35 -10 -60 -3 -25 -8
-53 -11 -63 -3 -10 -7 -31 -9 -47 -2 -16 -9 -55 -14 -87 -6 -32 -13 -76 -16
-98 -4 -22 -8 -47 -10 -55 -4 -14 -10 -49 -20 -115 -2 -16 -6 -39 -8 -50 -3
-11 -8 -42 -11 -70 -4 -27 -9 -57 -11 -65 -2 -8 -6 -28 -9 -44 -3 -16 -7 -30
-8 -32 -2 -2 -148 -5 -323 -8 -176 -2 -327 -6 -335 -9 -8 -3 -51 -8 -95 -12
-44 -3 -89 -8 -100 -10 -44 -10 -81 -17 -95 -17 -20 -1 -244 -48 -285 -60
-187 -57 -233 -71 -250 -78 -11 -4 -49 -19 -85 -33 -58 -22 -111 -45 -220 -95
-19 -9 -61 -31 -92 -49 -32 -17 -58 -29 -58 -25 0 4 -4 2 -8 -3 -4 -6 -29 -24
-57 -40 -27 -17 -59 -35 -70 -42 -11 -7 -30 -18 -42 -24 -13 -7 -23 -16 -23
-21 0 -4 -6 -8 -14 -8 -8 0 -16 -3 -18 -7 -1 -5 -25 -24 -53 -42 -196 -136
-399 -331 -560 -541 -28 -36 -52 -67 -55 -70 -16 -16 -144 -220 -164 -260 -4
-8 -12 -24 -19 -35 -11 -18 -37 -66 -155 -285 -19 -36 -37 -67 -39 -70 -2 -2
-109 -5 -236 -6 -220 -2 -407 -9 -466 -18 -14 -3 -48 -7 -75 -11 -27 -3 -57
-10 -66 -15 -10 -5 -20 -7 -23 -4 -11 11 -75 -28 -86 -52 -14 -32 -5 -141 14
-170 25 -38 65 -44 273 -39 209 5 449 13 545 19 56 3 63 -1 58 -36 -1 -7 -4
-47 -18 -208 -10 -117 -10 -410 0 -505 20 -197 55 -371 111 -550 1 -5 6 -23
11 -40 4 -16 12 -36 18 -42 5 -7 6 -13 2 -13 -4 0 -3 -6 2 -12 5 -7 18 -35 28
-63 17 -47 106 -233 136 -285 102 -174 257 -375 407 -526 168 -170 267 -233
320 -205 48 26 54 161 11 262 -21 49 -88 157 -136 217 -82 104 -104 134 -139
182 -53 71 -183 287 -178 293 3 2 -2 10 -11 17 -8 7 -15 17 -15 22 0 6 -13 38
-28 72 -51 108 -109 253 -116 289 -2 6 -6 19 -9 27 -13 34 -57 220 -66 280
-21 134 -24 168 -25 290 -1 114 6 213 17 265 3 11 8 40 12 65 15 95 46 139 94
135 188 -19 520 -155 820 -335 127 -76 272 -176 279 -192 2 -5 8 -8 13 -8 27
0 287 -261 379 -380 19 -25 37 -47 40 -50 3 -3 10 -12 15 -21 37 -60 69 -104
76 -107 5 -2 9 -9 9 -16 0 -8 9 -24 19 -38 30 -37 123 -224 160 -319 18 -46
37 -93 41 -104 11 -25 39 -115 45 -141 2 -10 13 -60 24 -110 20 -88 23 -112
39 -259 12 -116 5 -386 -13 -455 -2 -8 -7 -42 -10 -75 -4 -32 -8 -62 -10 -65
-5 -8 -17 -156 -20 -240 -2 -49 2 -85 11 -102 57 -112 276 -39 309 103 3 13
14 67 25 119 11 52 22 106 25 120 4 21 10 54 31 175 2 11 5 31 8 45 3 14 8 41
10 60 5 34 11 69 21 120 3 14 7 36 10 50 2 14 7 43 10 65 4 22 8 50 10 62 2
12 6 34 9 50 6 31 15 84 21 123 4 29 15 95 20 120 2 10 7 40 11 67 3 26 8 57
10 68 2 11 6 34 9 50 3 17 10 57 15 90 6 33 12 71 14 85 3 14 5 27 6 30 1 3 1
14 1 26 -3 33 18 42 109 48 169 13 308 24 390 32 36 3 85 8 109 10 24 2 51 6
60 9 9 2 33 7 53 9 39 5 134 22 178 32 14 3 34 7 45 9 11 3 31 7 44 10 178 35
514 162 726 274 117 61 368 218 385 240 3 4 23 20 46 36 93 68 261 227 359
339 28 32 57 65 66 74 44 47 185 251 230 333 13 24 26 46 29 49 11 10 110 217
143 300 64 159 134 394 142 475 1 18 10 68 21 129 8 42 18 226 17 316 -1 124
-14 276 -30 360 -4 19 -8 42 -9 50 -18 124 -122 456 -162 518 -8 12 -12 22 -8
22 17 0 -223 430 -245 438 -5 2 -9 10 -9 17 0 7 -3 15 -7 17 -5 2 -24 26 -43
53 -96 139 -271 300 -553 510 -48 36 -90 65 -92 65 -8 0 -100 65 -103 73 -2 4
-7 7 -11 7 -4 0 -61 32 -127 71 -223 134 -498 259 -688 314 -90 26 -114 30
-221 41 -33 3 -62 7 -65 8 -3 1 -16 0 -29 -2z m359 -386 c19 -8 89 -36 155
-62 126 -50 241 -107 313 -155 24 -16 45 -29 48 -29 6 0 62 -40 88 -62 11 -10
23 -18 27 -18 3 0 35 -22 70 -50 35 -27 69 -53 74 -57 165 -125 400 -360 507
-507 21 -28 41 -56 45 -61 9 -12 31 -51 60 -105 10 -19 21 -37 24 -40 7 -5 54
-103 98 -205 45 -102 100 -270 104 -317 1 -10 5 -18 9 -18 4 0 7 -8 6 -17 0
-10 5 -43 11 -73 7 -30 14 -68 16 -85 3 -16 8 -46 11 -65 3 -19 7 -120 8 -225
5 -266 -32 -503 -113 -725 -11 -30 -27 -75 -36 -99 -18 -50 -98 -213 -140
-286 -159 -276 -406 -549 -665 -735 -30 -21 -66 -48 -80 -58 -115 -85 -516
-286 -613 -306 -7 -2 -20 -6 -29 -10 -9 -4 -22 -9 -30 -10 -7 -2 -20 -6 -28
-9 -55 -22 -329 -88 -470 -112 -14 -2 -41 -7 -60 -10 -19 -4 -44 -8 -55 -9
-11 -2 -42 -6 -70 -10 -151 -21 -237 -13 -268 26 -22 27 -20 71 13 264 12 65
23 133 26 149 2 17 12 66 20 110 8 44 17 96 20 115 3 29 15 94 40 226 2 11 6
36 8 55 3 19 5 34 6 34 2 0 4 11 19 100 6 33 13 69 15 80 2 11 7 40 11 65 4
25 9 54 12 65 2 11 6 31 8 45 2 14 6 34 8 45 6 27 15 82 23 129 3 21 8 48 10
60 5 27 42 221 49 261 3 17 8 46 11 65 4 19 8 44 9 55 5 33 15 89 20 105 2 8
7 33 10 55 3 23 8 52 10 65 3 14 8 41 11 60 3 19 7 42 9 50 2 8 7 29 10 45 2
17 7 41 10 55 3 14 8 45 11 70 3 25 8 48 10 51 2 3 6 21 9 40 3 19 10 59 17
89 6 30 12 66 13 80 2 14 8 50 15 80 6 30 13 66 15 80 2 14 6 34 8 45 6 28 20
107 22 125 1 8 5 29 8 45 4 17 9 43 11 59 3 16 10 52 15 80 6 28 12 62 15 76
2 14 14 79 26 145 13 66 24 129 25 141 2 11 8 45 14 75 6 30 13 65 16 79 3 14
7 36 10 50 2 14 7 39 10 55 3 17 7 41 10 55 3 14 8 39 11 57 2 18 11 64 19
102 8 39 17 85 20 103 5 28 26 132 41 203 2 11 6 31 9 45 3 14 7 35 9 47 8 38
37 84 58 92 25 9 97 -2 148 -23z m-920 -1649 c57 -11 61 -16 55 -66 -11 -99
-14 -127 -19 -156 -9 -52 -18 -119 -21 -145 -2 -14 -4 -25 -5 -25 -1 0 -3 -16
-5 -35 -2 -30 -10 -75 -31 -190 -2 -14 -7 -41 -10 -60 -11 -75 -32 -194 -39
-230 -3 -14 -7 -42 -10 -63 -3 -21 -7 -48 -10 -60 -7 -33 -15 -78 -21 -117 -2
-19 -7 -42 -9 -50 -3 -8 -7 -33 -10 -55 -4 -22 -8 -49 -10 -60 -2 -11 -8 -45
-14 -75 -6 -30 -13 -71 -16 -90 -3 -19 -8 -42 -10 -50 -2 -8 -6 -31 -9 -50 -3
-19 -12 -71 -21 -115 -8 -44 -18 -98 -21 -120 -3 -21 -7 -42 -9 -45 -2 -4 -7
-29 -11 -56 -3 -27 -8 -52 -10 -55 -2 -4 -7 -24 -10 -45 -3 -22 -7 -43 -8 -49
-2 -5 -6 -32 -11 -60 -4 -27 -10 -54 -13 -59 -2 -4 -7 -27 -9 -50 -5 -45 -10
-81 -13 -81 -2 0 -6 -18 -14 -65 -3 -19 -8 -46 -11 -60 -3 -14 -8 -38 -11 -55
-2 -16 -9 -46 -14 -65 -5 -19 -11 -52 -14 -72 -3 -21 -10 -57 -15 -80 -6 -24
-13 -59 -16 -78 -8 -41 -13 -63 -15 -70 -1 -3 -2 -8 -2 -11 0 -3 -4 -23 -9
-45 -12 -48 -16 -66 -29 -129 -17 -81 -20 -93 -31 -122 l-11 -28 -19 25 c-10
14 -23 30 -29 37 -5 7 -10 15 -10 17 0 3 -18 35 -40 71 -22 36 -40 67 -40 69
0 3 -62 116 -94 171 -23 40 -89 140 -96 145 -3 3 -26 32 -51 64 -115 154 -387
421 -526 516 -12 8 -59 43 -106 76 -103 76 -236 154 -382 226 -101 51 -254
116 -287 122 -7 2 -20 6 -28 9 -8 3 -80 25 -160 47 -157 45 -226 67 -246 78
-18 11 21 99 101 228 38 60 71 111 75 114 3 3 28 36 54 74 227 321 476 551
816 753 71 43 297 152 325 157 5 2 26 9 45 18 53 23 114 42 124 40 4 -2 13 2
20 7 16 13 246 70 311 76 6 1 28 5 50 8 52 10 99 16 245 33 19 2 80 6 135 10
55 3 101 7 102 8 4 4 210 -3 233 -7z"/>
</g>
</svg>
