<?xml version="1.0" encoding="UTF-8" standalone="no"?>
<!-- Created with Inkscape (http://www.inkscape.org/) -->

<svg
   xmlns:dc="http://purl.org/dc/elements/1.1/"
   xmlns:cc="http://creativecommons.org/ns#"
   xmlns:rdf="http://www.w3.org/1999/02/22-rdf-syntax-ns#"
   xmlns:svg="http://www.w3.org/2000/svg"
   xmlns="http://www.w3.org/2000/svg"
   xmlns:sodipodi="http://sodipodi.sourceforge.net/DTD/sodipodi-0.dtd"
   xmlns:inkscape="http://www.inkscape.org/namespaces/inkscape"
   width="210mm"
   height="297mm"
   viewBox="0 0 210 297"
   version="1.1"
   id="svg8"
   inkscape:version="0.92.2 5c3e80d, 2017-08-06"
   sodipodi:docname="logo.svg">
  <defs
     id="defs2" />
  <sodipodi:namedview
     id="base"
     pagecolor="#ffffff"
     bordercolor="#666666"
     borderopacity="1.0"
     inkscape:pageopacity="0.0"
     inkscape:pageshadow="2"
     inkscape:zoom="0.5247124"
     inkscape:cx="455.38075"
     inkscape:cy="677.08231"
     inkscape:document-units="mm"
     inkscape:current-layer="layer2"
     showgrid="false"
     inkscape:window-width="910"
     inkscape:window-height="798"
     inkscape:window-x="-10"
     inkscape:window-y="0"
     inkscape:window-maximized="0" />
  <metadata
     id="metadata5">
    <rdf:RDF>
      <cc:Work
         rdf:about="">
        <dc:format>image/svg+xml</dc:format>
        <dc:type
           rdf:resource="http://purl.org/dc/dcmitype/StillImage" />
        <dc:title />
      </cc:Work>
    </rdf:RDF>
  </metadata>
  <g
     inkscape:groupmode="layer"
     id="layer2"
     inkscape:label="Layer 2">
    <ellipse
       style="fill:#ffffff;stroke-width:0.26458332"
       id="path3723"
       cx="103.87436"
       cy="128.07809"
       rx="28.741938"
       ry="27.733448" />
  </g>
  <g
     inkscape:label="Layer 1"
     inkscape:groupmode="layer"
     id="layer1">
    <path
       style="fill:#000000;stroke-width:0.2969842"
       d="m 101.37541,147.32223 c -0.0994,-0.23625 -0.0262,-1.33781 0.16267,-2.44792 0.67641,-3.97559 -0.82377,-8.10654 -4.022086,-11.07532 -1.635192,-1.51784 -4.618024,-3.12282 -6.585421,-3.54343 -0.794121,-0.16977 -0.842346,-0.11538 -1.059202,1.19467 -0.475807,2.87441 0.799919,6.81163 3.087428,9.52861 0.724611,0.86065 1.136247,1.6569 1.136247,2.19792 0,1.23958 -0.672211,1.06992 -2.241144,-0.56563 -2.687721,-2.80184 -3.978776,-6.14489 -3.978776,-10.30261 l 0.207094,-2.52211 -2.617314,0.10017 c -2.399934,0.0997 -2.410622,0.097 -2.504554,-0.64128 -0.08047,-0.63249 0.05091,-0.76792 0.894114,-0.92171 0.543646,-0.0992 1.789361,-0.18027 2.768255,-0.18027 h 1.779807 l 1.174998,-2.16804 c 2.782275,-5.13372 8.521586,-8.3253 14.971044,-8.3253 h 2.17239 l 0.713,-4.18316 c 1.02757,-6.02878 0.81515,-5.54873 2.38401,-5.38748 1.74514,0.17939 4.71317,1.74596 6.70649,3.19151 0.8759,0.6352 2.38278,1.81741 3.15878,2.8826 3.41394,4.68616 3.87865,10.09427 1.29146,15.02975 -2.55968,4.883 -7.66134,8.02677 -13.78096,8.49218 l -2.4664,0.18757 -0.68167,4.1446 c -0.37492,2.27953 -0.7839,4.46365 -0.90882,4.85361 -0.26084,0.81418 -1.47871,1.13295 -1.76144,0.46107 z m 3.23514,-18.49961 c 0.90852,-4.92977 1.56912,-9.03866 1.46801,-9.13087 -0.37934,-0.34592 -4.19716,-0.0441 -6.03302,0.47698 -2.460916,0.69847 -4.659252,1.99761 -6.444814,3.80866 -1.237474,1.25513 -3.154571,4.11409 -2.869796,4.27971 0.05426,0.0315 0.89344,0.27777 1.864837,0.54715 3.635377,1.00814 7.522553,4.1052 9.208353,7.33664 0.46381,0.88906 0.91334,1.62289 0.99895,1.63071 0.0856,0.007 0.89897,-4.01921 1.80748,-8.94898 z m 4.13923,6.85368 c 9.86059,-1.906 14.79961,-11.72347 9.87709,-19.63306 -1.18457,-1.90339 -4.20853,-4.44091 -6.36336,-5.33974 -2.08585,-0.87005 -2.25551,-0.87508 -2.45249,-0.0727 -0.36895,1.50294 -4.52014,24.34536 -4.52014,24.87269 0,0.70348 0.56702,0.73181 3.4589,0.17282 z"
       id="path9"
       inkscape:connector-curvature="0"
       sodipodi:nodetypes="ccccscscsccccscsscscscsccsccscccccscsccccscc"
       inkscape:transform-center-x="71.098472"
       inkscape:transform-center-y="52.441426" />
  </g>
</svg>
