<?xml version="1.0" encoding="UTF-8" standalone="no"?>
<!-- Created with Inkscape (http://www.inkscape.org/) -->

<svg
   xmlns:dc="http://purl.org/dc/elements/1.1/"
   xmlns:cc="http://creativecommons.org/ns#"
   xmlns:rdf="http://www.w3.org/1999/02/22-rdf-syntax-ns#"
   xmlns:svg="http://www.w3.org/2000/svg"
   xmlns="http://www.w3.org/2000/svg"
   xmlns:sodipodi="http://sodipodi.sourceforge.net/DTD/sodipodi-0.dtd"
   xmlns:inkscape="http://www.inkscape.org/namespaces/inkscape"
   width="210mm"
   height="297mm"
   viewBox="0 0 210 297"
   version="1.1"
   id="svg8"
   inkscape:version="0.92.2 5c3e80d, 2017-08-06"
   sodipodi:docname="logo.svg">
  <defs
     id="defs2" />
  <sodipodi:namedview
     id="base"
     pagecolor="#ffffff"
     bordercolor="#666666"
     borderopacity="1.0"
     inkscape:pageopacity="0.0"
     inkscape:pageshadow="2"
     inkscape:zoom="0.5247124"
     inkscape:cx="455.38075"
     inkscape:cy="524.61783"
     inkscape:document-units="mm"
     inkscape:current-layer="layer1"
     showgrid="false"
     inkscape:window-width="910"
     inkscape:window-height="798"
     inkscape:window-x="-10"
     inkscape:window-y="0"
     inkscape:window-maximized="0" />
  <metadata
     id="metadata5">
    <rdf:RDF>
      <cc:Work
         rdf:about="">
        <dc:format>image/svg+xml</dc:format>
        <dc:type
           rdf:resource="http://purl.org/dc/dcmitype/StillImage" />
        <dc:title />
      </cc:Work>
    </rdf:RDF>
  </metadata>
  <g
     inkscape:label="Layer 1"
     inkscape:groupmode="layer"
     id="layer1">
    <path
       style="fill:#000000;stroke-width:1.47304165"
       d="m 98.238596,240.67852 c -0.49309,-1.17177 -0.12991,-6.63552 0.806861,-12.14167 3.354983,-19.7189 -4.085925,-40.20841 -19.949589,-54.93359 -8.110588,-7.5285 -22.905435,-15.48918 -32.663723,-17.5754 -3.93884,-0.84206 -4.178039,-0.5723 -5.253642,5.92555 -2.360005,14.25708 3.967598,33.78569 15.313642,47.26191 3.594072,4.26885 5.635786,8.21824 5.635786,10.9017 0,6.1483 -3.334167,5.3068 -11.116073,-2.80553 -13.3311,-13.89713 -19.734733,-30.47866 -19.734733,-51.10095 l 1.027188,-12.50966 -12.981877,0.49683 c -11.9036697,0.49469 -11.9566817,0.4811 -12.4225847,-3.18072 -0.399117,-3.13715 0.252513,-3.80891 4.4348047,-4.57171 2.696481,-0.49179 8.875231,-0.89413 13.730542,-0.89413 h 8.827845 l 5.82799,-10.7535 C 53.521115,109.33442 81.988109,93.504169 113.97749,93.504169 h 10.77506 l 3.53646,-20.74846 c 5.09673,-29.90274 4.04315,-27.521707 11.82469,-26.721893 8.65588,0.889749 23.37732,8.659971 33.26421,15.829901 4.34442,3.150564 11.81858,9.014309 15.66753,14.297672 16.93316,23.24336 19.23808,50.067571 6.40564,74.547571 -12.69603,24.21967 -38.00026,39.81277 -68.35354,42.12119 l -12.23335,0.93035 -3.38109,20.55721 c -1.85962,11.3065 -3.88814,22.13972 -4.50778,24.07391 -1.29374,4.03833 -7.334374,5.61947 -8.736724,2.2869 z m 16.046314,-91.75804 c 4.50622,-24.45167 7.78281,-44.83178 7.28132,-45.28911 -1.88152,-1.71575 -20.8179,-0.21855 -29.92379,2.3658 -12.206177,3.4644 -23.109948,9.90817 -31.966338,18.89098 -6.137869,6.22545 -15.646669,20.40588 -14.234189,21.22733 0.269134,0.15636 4.431465,1.37777 9.249593,2.71386 18.031464,5.00041 37.311904,20.36179 45.673494,36.38974 2.30052,4.40974 4.53017,8.04953 4.95479,8.08836 0.42466,0.0372 4.45891,-19.93529 8.96512,-44.38696 z m 20.53057,33.99423 c 48.90851,-9.45374 73.40605,-58.1484 48.99038,-97.379971 -5.87548,-9.4408 -20.87433,-22.026913 -31.56229,-26.485107 -10.3458,-4.315419 -11.1873,-4.340398 -12.16435,-0.360528 -1.83001,7.454589 -22.41988,120.752986 -22.41988,123.368526 0,3.48927 2.81243,3.62979 17.15614,0.8572 z"
       id="path9"
       inkscape:connector-curvature="0"
       sodipodi:nodetypes="ccccscscsccccscsscscscsccsccscccccscsccccscc" />
  </g>
</svg>
